<svg width="24" height="24" viewBox="0 0 24 24" fill="none" xmlns="http://www.w3.org/2000/svg">
<path d="M11.9002 11.1605C12.6332 11.1605 13.3497 10.9432 13.9591 10.5359C14.5685 10.1287 15.0435 9.54991 15.3239 8.87273C15.6044 8.19555 15.6777 7.45041 15.5347 6.73154C15.3916 6.01268 15.0386 5.35238 14.5203 4.83415C14.002 4.31592 13.3416 3.96304 12.6227 3.82014C11.9038 3.67724 11.1587 3.75073 10.4816 4.03132C9.80443 4.31192 9.22573 4.78701 8.81863 5.39652C8.41152 6.00602 8.19431 6.72257 8.19446 7.45553C8.19565 8.43792 8.58648 9.37972 9.28121 10.0743C9.97593 10.7689 10.9178 11.1595 11.9002 11.1605ZM11.9002 5.24977C12.3365 5.24977 12.7629 5.37914 13.1257 5.62151C13.4884 5.86388 13.7711 6.20837 13.9381 6.61142C14.105 7.01447 14.1487 7.45797 14.0636 7.88585C13.9785 8.31372 13.7684 8.70675 13.4599 9.01523C13.1514 9.32371 12.7584 9.53378 12.3305 9.61889C11.9027 9.704 11.4592 9.66032 11.0561 9.49337C10.6531 9.32642 10.3086 9.04371 10.0662 8.68097C9.82382 8.31824 9.69446 7.89178 9.69446 7.45553C9.69525 6.87077 9.9279 6.31019 10.3414 5.8967C10.7549 5.48321 11.3155 5.25057 11.9002 5.24977Z" fill="#242424"/>
<path d="M4.8998 13.3387C5.46348 13.3387 6.0145 13.1715 6.48318 12.8584C6.95186 12.5452 7.31715 12.1001 7.53286 11.5793C7.74857 11.0586 7.80501 10.4855 7.69504 9.93267C7.58507 9.37982 7.31364 8.872 6.91506 8.47342C6.51648 8.07484 6.00866 7.8034 5.45581 7.69344C4.90297 7.58347 4.32993 7.63991 3.80916 7.85562C3.28839 8.07133 2.84328 8.43662 2.53012 8.9053C2.21695 9.37398 2.0498 9.925 2.0498 10.4887C2.0498 11.2445 2.35007 11.9694 2.88455 12.5039C3.41903 13.0384 4.14394 13.3387 4.8998 13.3387ZM4.8998 9.13867C5.16681 9.13867 5.42782 9.21785 5.64982 9.36619C5.87183 9.51453 6.04486 9.72537 6.14704 9.97205C6.24922 10.2187 6.27595 10.4902 6.22386 10.752C6.17177 11.0139 6.0432 11.2545 5.8544 11.4433C5.6656 11.6321 5.42505 11.7606 5.16318 11.8127C4.9013 11.8648 4.62986 11.8381 4.38318 11.7359C4.1365 11.6337 3.92566 11.4607 3.77732 11.2387C3.62898 11.0167 3.5498 10.7557 3.5498 10.4887C3.5498 10.1306 3.69204 9.78725 3.94521 9.53408C4.19838 9.28091 4.54176 9.13867 4.8998 9.13867Z" fill="#242424"/>
<path d="M18.9 13.3387C19.4637 13.3387 20.0147 13.1715 20.4834 12.8584C20.9521 12.5452 21.3174 12.1001 21.5331 11.5793C21.7488 11.0586 21.8053 10.4855 21.6953 9.93267C21.5853 9.37982 21.3139 8.872 20.9153 8.47342C20.5167 8.07484 20.0089 7.8034 19.4561 7.69344C18.9032 7.58347 18.3302 7.63991 17.8094 7.85562C17.2886 8.07133 16.8435 8.43662 16.5304 8.9053C16.2172 9.37398 16.05 9.925 16.05 10.4887C16.05 11.2445 16.3503 11.9694 16.8848 12.5039C17.4193 13.0384 18.1442 13.3387 18.9 13.3387ZM18.9 9.13867C19.1671 9.13867 19.4281 9.21785 19.6501 9.36619C19.8721 9.51453 20.0451 9.72537 20.1473 9.97205C20.2495 10.2187 20.2762 10.4902 20.2241 10.752C20.172 11.0139 20.0434 11.2545 19.8546 11.4433C19.6658 11.6321 19.4253 11.7606 19.1634 11.8127C18.9015 11.8648 18.6301 11.8381 18.3834 11.7359C18.1367 11.6337 17.9259 11.4607 17.7776 11.2387C17.6292 11.0167 17.55 10.7557 17.55 10.4887C17.55 10.1306 17.6923 9.78725 17.9455 9.53408C18.1986 9.28091 18.542 9.13867 18.9 9.13867Z" fill="#242424"/>
<path d="M18.9998 14.8431C18.3423 14.8474 17.6963 15.0158 17.1203 15.3328C16.5727 14.4659 15.8179 13.7489 14.924 13.2465C14.0301 12.7441 13.0253 12.4721 12 12.4551C10.9748 12.4721 9.96988 12.7441 9.076 13.2465C8.18212 13.7489 7.42735 14.4659 6.87976 15.3328C6.30375 15.0158 5.65774 14.8474 5.00026 14.8431C3.82043 14.9006 2.71129 15.4226 1.91498 16.2951C1.11867 17.1676 0.699871 18.3197 0.750006 19.4998C0.750006 19.6987 0.829023 19.8895 0.969676 20.0302C1.11033 20.1708 1.30109 20.2498 1.50001 20.2498C1.69892 20.2498 1.88968 20.1708 2.03034 20.0302C2.17099 19.8895 2.25001 19.6987 2.25001 19.4998C2.20085 18.7176 2.462 17.9476 2.97684 17.3566C3.49167 16.7657 4.21869 16.4015 5.00026 16.3431C5.41472 16.3463 5.82162 16.4544 6.18301 16.6573C5.82954 17.5481 5.64858 18.498 5.64976 19.4563C5.64976 19.6552 5.72877 19.846 5.86943 19.9867C6.01008 20.1273 6.20084 20.2063 6.39976 20.2063C6.59867 20.2063 6.78943 20.1273 6.93009 19.9867C7.07074 19.846 7.14976 19.6552 7.14976 19.4563C7.14976 16.4226 9.32476 13.9551 12 13.9551C14.6753 13.9551 16.8503 16.4226 16.8503 19.4563C16.8503 19.6552 16.9293 19.846 17.0699 19.9867C17.2106 20.1273 17.4013 20.2063 17.6003 20.2063C17.7992 20.2063 17.9899 20.1273 18.1306 19.9867C18.2712 19.846 18.3503 19.6552 18.3503 19.4563C18.3514 18.498 18.1705 17.5481 17.817 16.6573C18.1784 16.4544 18.5853 16.3463 18.9998 16.3431C19.7813 16.4015 20.5083 16.7657 21.0232 17.3566C21.538 17.9476 21.7992 18.7176 21.75 19.4998C21.75 19.6987 21.829 19.8895 21.9697 20.0302C22.1103 20.1708 22.3011 20.2498 22.5 20.2498C22.6989 20.2498 22.8897 20.1708 23.0303 20.0302C23.171 19.8895 23.25 19.6987 23.25 19.4998C23.3001 18.3197 22.8813 17.1676 22.085 16.2951C21.2887 15.4226 20.1796 14.9006 18.9998 14.8431Z" fill="#242424"/>
</svg>
