<svg width="23" height="18" viewBox="0 0 23 18" fill="none" xmlns="http://www.w3.org/2000/svg">
<path fill-rule="evenodd" clip-rule="evenodd" d="M0.5 17C0.5 16.7348 0.605357 16.4804 0.792893 16.2929C0.98043 16.1054 1.23478 16 1.5 16H21.5C21.7652 16 22.0196 16.1054 22.2071 16.2929C22.3946 16.4804 22.5 16.7348 22.5 17C22.5 17.2652 22.3946 17.5196 22.2071 17.7071C22.0196 17.8946 21.7652 18 21.5 18H1.5C1.23478 18 0.98043 17.8946 0.792893 17.7071C0.605357 17.5196 0.5 17.2652 0.5 17ZM0.5 9C0.5 8.73478 0.605357 8.48043 0.792893 8.29289C0.98043 8.10536 1.23478 8 1.5 8H21.5C21.7652 8 22.0196 8.10536 22.2071 8.29289C22.3946 8.48043 22.5 8.73478 22.5 9C22.5 9.26522 22.3946 9.51957 22.2071 9.70711C22.0196 9.89464 21.7652 10 21.5 10H1.5C1.23478 10 0.98043 9.89464 0.792893 9.70711C0.605357 9.51957 0.5 9.26522 0.5 9ZM0.5 1C0.5 0.734784 0.605357 0.48043 0.792893 0.292893C0.98043 0.105357 1.23478 0 1.5 0H21.5C21.7652 0 22.0196 0.105357 22.2071 0.292893C22.3946 0.48043 22.5 0.734784 22.5 1C22.5 1.26522 22.3946 1.51957 22.2071 1.70711C22.0196 1.89464 21.7652 2 21.5 2H1.5C1.23478 2 0.98043 1.89464 0.792893 1.70711C0.605357 1.51957 0.5 1.26522 0.5 1Z" fill="black"/>
</svg>
